Coordinates
version=1
nRows=11
nColumns=63
inDegrees=yes

Units are S.I. units (second, meters, Newtons, ...)
If the header above contains a line with 'inDegrees', this indicates whether rotational values are in degrees (yes) or radians (no).

endheader
time	pelvis_tilt	pelvis_list	pelvis_rotation	pelvis_tx	pelvis_ty	pelvis_tz	hip_flexion_r	hip_adduction_r	hip_rotation_r	knee_angle_r	knee_angle_r_beta	ankle_angle_r	subtalar_angle_r	mtp_angle_r	hip_flexion_l	hip_adduction_l	hip_rotation_l	knee_angle_l	knee_angle_l_beta	ankle_angle_l	subtalar_angle_l	mtp_angle_l	L5_S1_Flex_Ext	L5_S1_Lat_Bending	L5_S1_axial_rotation	L4_L5_Flex_Ext	L4_L5_Lat_Bending	L4_L5_axial_rotation	L3_L4_Flex_Ext	L3_L4_Lat_Bending	L3_L4_axial_rotation	L2_L3_Flex_Ext	L2_L3_Lat_Bending	L2_L3_axial_rotation	L1_L2_Flex_Ext	L1_L2_Lat_Bending	L1_L2_axial_rotation	L1_T12_Flex_Ext	L1_T12_Lat_Bending	L1_T12_axial_rotation	Abs_r3	Abs_r2	Abs_r1	Abs_t1	Abs_t2	neck_flexion	neck_bending	neck_rotation	arm_flex_r	arm_add_r	arm_rot_r	elbow_flex_r	pro_sup_r	wrist_flex_r	wrist_dev_r	arm_flex_l	arm_add_l	arm_rot_l	elbow_flex_l	pro_sup_l	wrist_flex_l	wrist_dev_l
4.152542	-6.845355	-1.898559	97.713945	0.184284	0.911780	0.708100	-0.794138	-3.450249	-10.704549	9.086135	0.158583	26.725902	-1.065014	0.000000	1.801880	3.146428	-0.916568	8.336161	0.145493	29.238215	15.439180	0.000000	-0.207047	-0.547759	-0.266203	-0.384506	-0.728519	-0.282840	-0.340157	-1.331821	-0.282840	-0.236634	-1.331821	-0.232927	-0.192264	-1.116990	-0.216290	-0.118307	-0.848478	-0.199652	-1.478914	-6.196356	-1.480540	0.000000	0.000000	13.445693	3.397915	-6.859697	2.120105	-12.248085	12.102005	113.914603	89.408860	16.286268	24.430183	3.161674	-11.097900	-1.249625	85.390452	71.582110	-9.115455	6.220962
4.169492	-6.631970	-1.731984	97.858328	0.183913	0.912274	0.707722	-0.900927	-3.200070	-10.664656	9.143276	0.159580	26.544863	-1.497808	0.000000	1.591971	2.926247	-0.654525	8.232988	0.143693	29.250843	15.416446	0.000000	-0.211007	-0.505828	-0.315567	-0.391861	-0.672751	-0.335290	-0.346663	-1.229869	-0.335290	-0.241160	-1.229869	-0.276122	-0.195941	-1.031484	-0.256399	-0.120569	-0.783527	-0.236676	-1.507201	-5.722023	-1.755092	0.000000	0.000000	12.898160	3.442931	-6.475045	2.196115	-12.559974	12.159390	114.445950	89.211618	16.163112	24.365177	3.151288	-10.901943	-1.733099	85.041499	72.094871	-9.257741	6.414564
4.186441	-6.457591	-1.623118	97.961637	0.183680	0.912677	0.707339	-0.918647	-3.006418	-10.651001	9.266696	0.161734	26.394999	-1.880595	0.000000	1.439437	2.745370	-0.446740	8.139224	0.142056	29.247969	15.367541	0.000000	-0.209096	-0.473012	-0.360919	-0.388312	-0.629107	-0.383477	-0.343524	-1.150083	-0.383477	-0.238976	-1.150083	-0.315805	-0.194166	-0.964567	-0.293247	-0.119477	-0.732696	-0.270690	-1.493551	-5.350812	-2.007326	0.000000	0.000000	12.363560	3.584671	-6.188997	2.246387	-12.766765	12.488760	114.657746	88.960570	16.121332	24.416743	3.261956	-10.653240	-1.882317	84.831518	72.393815	-9.381012	6.360254
4.203390	-6.330584	-1.565713	98.034557	0.183590	0.912995	0.706971	-0.860861	-2.876502	-10.667668	9.450826	0.164948	26.281052	-2.207719	0.000000	1.339630	2.611231	-0.285688	8.059709	0.140668	29.229754	15.303202	0.000000	-0.203980	-0.450099	-0.408024	-0.378811	-0.598632	-0.433526	-0.335119	-1.094371	-0.433526	-0.233129	-1.094371	-0.357021	-0.189416	-0.917842	-0.331520	-0.116554	-0.697203	-0.306018	-1.457008	-5.091611	-2.269309	0.000000	0.000000	11.828211	3.807038	-5.953336	2.317119	-12.862381	13.133454	114.512060	88.744289	16.217206	24.466939	3.462270	-10.393229	-1.713015	84.824061	72.483653	-9.495621	6.062960
4.220339	-6.254831	-1.563102	98.059702	0.183654	0.913219	0.706657	-0.719420	-2.816636	-10.705808	9.699334	0.169285	26.212955	-2.456844	0.000000	1.295205	2.530472	-0.190971	7.987573	0.139409	29.199939	15.214008	0.000000	-0.196304	-0.436661	-0.460860	-0.364557	-0.580759	-0.489664	-0.322508	-1.061697	-0.489664	-0.224356	-1.061697	-0.403253	-0.182288	-0.890439	-0.374449	-0.112168	-0.676388	-0.345645	-1.402182	-4.939596	-2.563165	0.000000	0.000000	11.278709	4.062268	-5.684252	2.491457	-12.847128	14.157012	113.982090	88.582180	16.453936	24.415649	3.676746	-10.148848	-1.304679	85.086336	72.368495	-9.608301	5.521770
4.237288	-6.219864	-1.594015	98.052349	0.183850	0.913378	0.706372	-0.529383	-2.810607	-10.785936	9.994975	0.174445	26.172292	-2.628305	0.000000	1.286110	2.488863	-0.135517	7.926332	0.138341	29.166241	15.119029	0.000000	-0.190895	-0.431709	-0.504267	-0.354511	-0.574174	-0.535784	-0.313621	-1.049658	-0.535784	-0.218174	-1.049658	-0.441234	-0.177265	-0.880342	-0.409717	-0.109077	-0.668718	-0.378201	-1.363543	-4.883584	-2.804584	0.000000	0.000000	10.727272	4.367972	-5.455226	2.702303	-12.731270	15.426716	113.159049	88.426255	16.777904	24.282187	3.906219	-9.948370	-0.625871	85.624095	72.131391	-9.783672	4.869560
4.254237	-6.239779	-1.670554	97.984132	0.184204	0.913444	0.706126	-0.271419	-2.875005	-10.872793	10.343756	0.180533	26.173806	-2.719195	0.000000	1.326432	2.502687	-0.163989	7.879622	0.137525	29.134550	15.026867	0.000000	-0.185626	-0.435796	-0.541716	-0.344726	-0.579609	-0.575574	-0.304965	-1.059595	-0.575574	-0.212152	-1.059595	-0.474002	-0.172372	-0.888676	-0.440145	-0.106067	-0.675049	-0.406287	-1.325909	-4.929816	-3.012864	0.000000	0.000000	10.170582	4.657262	-5.183683	3.030629	-12.535683	17.008135	112.067515	88.259981	17.125209	24.086553	4.038925	-9.816833	0.183681	86.450128	71.693902	-9.938377	3.970484
4.271186	-6.284348	-1.771095	97.890963	0.184640	0.913451	0.705955	0.012085	-2.971942	-10.983506	10.702532	0.186794	26.191952	-2.728025	0.000000	1.393134	2.542312	-0.229032	7.830082	0.136661	29.111454	14.950456	0.000000	-0.183995	-0.444384	-0.572367	-0.341696	-0.591030	-0.608140	-0.302285	-1.080475	-0.608140	-0.210287	-1.080475	-0.500821	-0.170857	-0.906187	-0.465049	-0.105135	-0.688351	-0.429276	-1.314255	-5.026959	-3.183336	0.000000	0.000000	9.618834	4.909020	-4.859387	3.454141	-12.282058	18.787629	110.783917	88.104886	17.526719	23.821323	4.053712	-9.707735	1.019390	87.523962	71.132855	-10.085702	2.969921
4.288136	-6.363440	-1.892408	97.794390	0.185137	0.913395	0.705839	0.308194	-3.107317	-11.117024	11.058224	0.193002	26.241191	-2.668650	0.000000	1.492282	2.619272	-0.278801	7.802071	0.136172	29.091781	14.844122	0.000000	-0.185143	-0.459203	-0.603751	-0.343830	-0.610740	-0.641486	-0.304172	-1.116507	-0.641486	-0.211600	-1.116507	-0.528282	-0.171924	-0.936407	-0.490548	-0.105791	-0.711306	-0.452813	-1.322461	-5.194598	-3.357883	0.000000	0.000000	9.079335	5.122504	-4.495787	3.972893	-12.008628	20.735879	109.381058	87.970010	17.932869	23.512034	3.907290	-9.605473	1.724272	88.821495	70.601272	-10.177599	1.917213
4.305085	-6.465537	-2.017669	97.701354	0.185658	0.913300	0.705763	0.595201	-3.266613	-11.273870	11.396233	0.198902	26.331197	-2.526301	0.000000	1.601312	2.717917	-0.341548	7.784575	0.135866	29.075085	14.772262	0.000000	-0.189265	-0.477400	-0.634641	-0.351484	-0.634942	-0.674306	-0.310943	-1.160751	-0.674306	-0.216311	-1.160751	-0.555311	-0.175751	-0.973515	-0.515646	-0.108146	-0.739493	-0.475981	-1.351901	-5.400448	-3.529683	0.000000	0.000000	8.507735	5.262945	-4.038798	4.541279	-11.748754	22.744921	107.944176	87.873652	18.331073	23.174161	3.640096	-9.528221	2.321548	90.239182	69.685705	-10.236186	0.693883
4.322034	-6.580714	-2.138500	97.593966	0.186185	0.913157	0.705705	0.870194	-3.436262	-11.393535	11.715589	0.204476	26.472069	-2.338672	0.000000	1.706893	2.828504	-0.423039	7.773254	0.135669	29.056890	14.725967	0.000000	-0.195635	-0.497669	-0.659038	-0.363313	-0.661900	-0.700228	-0.321408	-1.210032	-0.700228	-0.223591	-1.210032	-0.576658	-0.181666	-1.014846	-0.535468	-0.111786	-0.770889	-0.494278	-1.397398	-5.629730	-3.665371	0.000000	0.000000	7.886045	5.317127	-3.564403	5.103042	-11.532598	24.681137	106.583995	87.821674	18.779092	22.948721	3.308703	-9.448866	2.742074	91.682342	68.747204	-10.202814	-0.602889
